<svg version="1.1" id="Layer_1" xmlns="http://www.w3.org/2000/svg" xmlns:xlink="http://www.w3.org/1999/xlink" x="0px" y="0px"
	 width="100%" viewBox="0 0 512 512" enable-background="new 0 0 512 512" xml:space="preserve">
<path fill="#000000" opacity="1.000000" stroke="none" 
	d="
M1.000000,190.000000 
	C1.000000,126.666664 1.000000,63.833332 1.000000,1.000000 
	C171.666672,1.000000 342.333344,1.000000 513.000000,1.000000 
	C513.000000,171.666672 513.000000,342.333344 513.000000,513.000000 
	C342.333344,513.000000 171.666672,513.000000 1.000000,513.000000 
	C1.000000,405.500000 1.000000,298.000000 1.000000,190.000000 
M107.003830,22.952175 
	C86.299988,25.456217 70.209183,35.772087 57.815880,52.199879 
	C45.317940,68.766380 41.839432,87.770226 43.019268,108.929939 
	C43.013031,194.717194 42.957909,280.504517 43.127556,366.291443 
	C43.137268,371.201813 44.982254,376.108551 45.961136,381.825287 
	C46.139622,382.957458 46.231827,384.111298 46.509712,385.218506 
	C49.978203,399.038269 58.443729,409.748718 68.188278,419.582214 
	C83.868378,435.405518 99.636169,451.142517 115.452637,466.829529 
	C119.089142,470.436218 122.884201,473.937012 126.931450,477.065979 
	C141.703705,488.486786 158.541489,493.169189 178.025543,491.965729 
	C250.024002,491.977325 322.022461,492.006989 394.020874,491.958435 
	C398.631622,491.955322 403.284973,491.639404 407.845123,490.969574 
	C428.246765,487.972687 444.256561,477.723938 456.415405,461.186615 
	C466.642822,447.276154 470.993622,431.565308 470.996460,414.485870 
	C471.003540,371.820038 471.008484,329.154175 470.996338,286.488342 
	C470.979401,226.990173 470.946136,167.492020 471.045685,107.070038 
	C471.946655,87.243484 468.626862,68.503006 456.189911,52.366932 
	C452.896271,48.093655 448.825714,44.392986 444.935883,40.610374 
	C434.134552,30.106743 421.210022,24.168234 405.561554,22.325439 
	C404.077667,22.208452 402.593781,21.989305 401.109863,21.989063 
	C305.079254,21.973288 209.048615,21.970097 113.018013,22.016777 
	C111.293373,22.017616 109.569038,22.634203 107.003830,22.952175 
z"/>
<path fill="#0DB561" opacity="1.000000" stroke="none" 
	d="
M45.973099,381.016998 
	C44.982254,376.108551 43.137268,371.201813 43.127556,366.291443 
	C42.957909,280.504517 43.013031,194.717194 43.510773,108.416702 
	C185.476562,107.893066 326.950867,107.882462 468.425140,107.877304 
	C469.256714,107.877274 470.088287,107.953331 470.919861,107.993851 
	C470.946136,167.492020 470.979401,226.990173 470.996338,286.488342 
	C471.008484,329.154175 471.003540,371.820038 470.996460,414.485870 
	C470.993622,431.565308 466.642822,447.276154 456.415405,461.186615 
	C444.256561,477.723938 428.246765,487.972687 407.845123,490.969574 
	C403.284973,491.639404 398.631622,491.955322 394.020874,491.958435 
	C322.022461,492.006989 250.024002,491.977325 177.721954,491.538574 
	C177.616318,488.978027 177.981674,486.845032 177.986237,484.711243 
	C178.029541,464.422272 178.024429,444.133209 178.008148,423.844147 
	C177.987228,397.796051 160.562119,380.206238 134.605225,380.146667 
	C106.998962,380.083282 79.392410,380.113922 51.786118,380.169464 
	C49.847885,380.173340 47.910744,380.721771 45.973099,381.016998 
M215.499863,299.751373 
	C249.991379,299.750702 284.482971,299.782471 318.974396,299.733459 
	C332.755524,299.713867 342.194794,290.949005 342.215942,278.368347 
	C342.237152,265.760071 332.785034,257.019531 319.048401,257.001984 
	C301.719360,256.979828 284.390259,256.996429 267.061188,256.996460 
	C228.570633,256.996552 190.080078,256.980347 151.589539,257.007660 
	C141.083084,257.015106 133.047455,262.550995 130.073456,271.658661 
	C125.424141,285.896820 135.758499,299.592377 151.515610,299.709717 
	C172.509293,299.866089 193.505005,299.750305 215.499863,299.751373 
M214.500000,225.003677 
	C249.158234,225.003647 283.816467,225.010147 318.474701,224.987869 
	C320.632263,224.986481 322.840454,225.013504 324.938690,224.594589 
	C336.139099,222.358490 343.129822,212.743103 342.096130,201.198227 
	C341.109985,190.184082 331.880188,182.288010 319.547272,182.275696 
	C263.727509,182.219955 207.907654,182.221863 152.087891,182.270447 
	C138.475906,182.282303 128.909317,191.363327 129.004242,203.878540 
	C129.097214,216.133652 138.681396,224.971695 152.014908,224.994308 
	C172.509888,225.029037 193.004959,225.003586 214.500000,225.003677 
M266.505341,374.256622 
	C285.166504,374.227203 303.832458,374.442566 322.486969,374.075775 
	C333.533905,373.858490 342.016937,364.541046 342.208801,353.489410 
	C342.403229,342.291534 334.304810,332.260193 323.473938,332.042114 
	C300.492401,331.579437 277.488922,331.587463 254.507019,332.040436 
	C243.879715,332.249939 235.778992,342.073334 235.783798,353.000854 
	C235.788605,363.935455 243.885941,373.134155 254.519745,374.050720 
	C258.161530,374.364655 261.844421,374.201691 266.505341,374.256622 
M383.265808,223.001221 
	C393.553558,217.252716 397.924927,207.299072 394.644684,197.091553 
	C391.613708,187.659775 381.777924,181.187958 372.224976,182.447586 
	C363.338715,183.619308 357.088074,188.399750 354.169098,196.866669 
	C351.379608,204.958084 353.129608,212.468674 359.142212,218.509781 
	C365.744629,225.143494 373.707336,226.742737 383.265808,223.001221 
M357.278778,291.133484 
	C365.210846,300.152985 376.133942,302.246979 385.435089,296.531158 
	C394.146759,291.177582 397.909821,280.386505 394.243500,270.874695 
	C391.152893,262.856384 385.151276,258.158691 376.717285,257.183533 
	C368.030334,256.179108 360.942078,259.610321 356.318634,267.036346 
	C351.468781,274.826080 351.824799,282.805786 357.278778,291.133484 
M395.710907,353.404755 
	C395.537048,351.922211 395.450073,350.423370 395.175171,348.959808 
	C393.481171,339.940613 386.103363,332.934784 377.309753,331.940002 
	C367.457306,330.825470 358.820435,335.566986 354.920288,344.231537 
	C351.064911,352.796570 353.058990,362.561523 360.101349,368.808990 
	C366.205292,374.223907 373.343109,375.674988 381.012146,373.134247 
	C389.992950,370.158966 394.588806,363.488251 395.710907,353.404755 
z"/>
<path fill="#1C5F3F" opacity="1.000000" stroke="none" 
	d="
M470.982788,107.531952 
	C470.088287,107.953331 469.256714,107.877274 468.425140,107.877304 
	C326.950867,107.882462 185.476562,107.893066 43.541222,107.948502 
	C41.839432,87.770226 45.317940,68.766380 57.815880,52.199879 
	C70.209183,35.772087 86.299988,25.456217 107.904076,22.972977 
	C207.921005,22.983772 307.037689,22.973763 406.154388,22.963753 
	C421.210022,24.168234 434.134552,30.106743 444.935883,40.610374 
	C448.825714,44.392986 452.896271,48.093655 456.189911,52.366932 
	C468.626862,68.503006 471.946655,87.243484 470.982788,107.531952 
z"/>
<path fill="#1C5F3F" opacity="1.000000" stroke="none" 
	d="
M45.967117,381.421143 
	C47.910744,380.721771 49.847885,380.173340 51.786118,380.169464 
	C79.392410,380.113922 106.998962,380.083282 134.605225,380.146667 
	C160.562119,380.206238 177.987228,397.796051 178.008148,423.844147 
	C178.024429,444.133209 178.029541,464.422272 177.986237,484.711243 
	C177.981674,486.845032 177.616318,488.978027 177.262390,491.488281 
	C158.541489,493.169189 141.703705,488.486786 126.931450,477.065979 
	C122.884201,473.937012 119.089142,470.436218 115.452637,466.829529 
	C99.636169,451.142517 83.868378,435.405518 68.188278,419.582214 
	C58.443729,409.748718 49.978203,399.038269 46.509712,385.218506 
	C46.231827,384.111298 46.139622,382.957458 45.967117,381.421143 
z"/>
<path fill="#197548" opacity="1.000000" stroke="none" 
	d="
M405.857971,22.644596 
	C307.037689,22.973763 207.921005,22.983772 108.324440,22.978630 
	C109.569038,22.634203 111.293373,22.017616 113.018013,22.016777 
	C209.048615,21.970097 305.079254,21.973288 401.109863,21.989063 
	C402.593781,21.989305 404.077667,22.208452 405.857971,22.644596 
z"/>
<path fill="#F0F1F1" opacity="1.000000" stroke="none" 
	d="
M214.999847,299.751373 
	C193.505005,299.750305 172.509293,299.866089 151.515610,299.709717 
	C135.758499,299.592377 125.424141,285.896820 130.073456,271.658661 
	C133.047455,262.550995 141.083084,257.015106 151.589539,257.007660 
	C190.080078,256.980347 228.570633,256.996552 267.061188,256.996460 
	C284.390259,256.996429 301.719360,256.979828 319.048401,257.001984 
	C332.785034,257.019531 342.237152,265.760071 342.215942,278.368347 
	C342.194794,290.949005 332.755524,299.713867 318.974396,299.733459 
	C284.482971,299.782471 249.991379,299.750702 214.999847,299.751373 
z"/>
<path fill="#F0F1F1" opacity="1.000000" stroke="none" 
	d="
M214.000000,225.003677 
	C193.004959,225.003586 172.509888,225.029037 152.014908,224.994308 
	C138.681396,224.971695 129.097214,216.133652 129.004242,203.878540 
	C128.909317,191.363327 138.475906,182.282303 152.087891,182.270447 
	C207.907654,182.221863 263.727509,182.219955 319.547272,182.275696 
	C331.880188,182.288010 341.109985,190.184082 342.096130,201.198227 
	C343.129822,212.743103 336.139099,222.358490 324.938690,224.594589 
	C322.840454,225.013504 320.632263,224.986481 318.474701,224.987869 
	C283.816467,225.010147 249.158234,225.003647 214.000000,225.003677 
z"/>
<path fill="#F1F2F1" opacity="1.000000" stroke="none" 
	d="
M266.006927,374.256622 
	C261.844421,374.201691 258.161530,374.364655 254.519745,374.050720 
	C243.885941,373.134155 235.788605,363.935455 235.783798,353.000854 
	C235.778992,342.073334 243.879715,332.249939 254.507019,332.040436 
	C277.488922,331.587463 300.492401,331.579437 323.473938,332.042114 
	C334.304810,332.260193 342.403229,342.291534 342.208801,353.489410 
	C342.016937,364.541046 333.533905,373.858490 322.486969,374.075775 
	C303.832458,374.442566 285.166504,374.227203 266.006927,374.256622 
z"/>
<path fill="#EFF1F0" opacity="1.000000" stroke="none" 
	d="
M382.901611,223.146820 
	C373.707336,226.742737 365.744629,225.143494 359.142212,218.509781 
	C353.129608,212.468674 351.379608,204.958084 354.169098,196.866669 
	C357.088074,188.399750 363.338715,183.619308 372.224976,182.447586 
	C381.777924,181.187958 391.613708,187.659775 394.644684,197.091553 
	C397.924927,207.299072 393.553558,217.252716 382.901611,223.146820 
z"/>
<path fill="#EFF1F0" opacity="1.000000" stroke="none" 
	d="
M357.073975,290.827148 
	C351.824799,282.805786 351.468781,274.826080 356.318634,267.036346 
	C360.942078,259.610321 368.030334,256.179108 376.717285,257.183533 
	C385.151276,258.158691 391.152893,262.856384 394.243500,270.874695 
	C397.909821,280.386505 394.146759,291.177582 385.435089,296.531158 
	C376.133942,302.246979 365.210846,300.152985 357.073975,290.827148 
z"/>
<path fill="#F0F1F0" opacity="1.000000" stroke="none" 
	d="
M395.684692,353.818390 
	C394.588806,363.488251 389.992950,370.158966 381.012146,373.134247 
	C373.343109,375.674988 366.205292,374.223907 360.101349,368.808990 
	C353.058990,362.561523 351.064911,352.796570 354.920288,344.231537 
	C358.820435,335.566986 367.457306,330.825470 377.309753,331.940002 
	C386.103363,332.934784 393.481171,339.940613 395.175171,348.959808 
	C395.450073,350.423370 395.537048,351.922211 395.684692,353.818390 
z"/>
</svg>